<?xml version="1.0" encoding="UTF-8"?>
<svg xmlns="http://www.w3.org/2000/svg" xmlns:xlink="http://www.w3.org/1999/xlink" width="216px" height="216px" viewBox="0 0 216 216" version="1.1">
<g id="surface1">
<path style=" stroke:none;fill-rule:nonzero;fill:rgb(22.745098%,36.470589%,99.607843%);fill-opacity:1;" d="M 60.480469 77.761719 C 62.75 79.03125 65.019531 80.304688 67.355469 81.617188 C 89.660156 94.128906 89.660156 94.128906 114.480469 92.878906 C 115.914062 93.269531 117.347656 93.660156 118.824219 94.0625 C 126.535156 95.816406 132.96875 90.226562 139.453125 86.398438 C 144.757812 83.289062 149.988281 80.480469 155.519531 77.761719 C 157.660156 78.472656 159.796875 79.1875 162 79.921875 C 163.070312 83.128906 163.070312 83.128906 164.160156 86.398438 C 163.070312 86.921875 161.980469 87.441406 160.859375 87.980469 C 155.90625 90.378906 150.988281 92.84375 146.070312 95.308594 C 144.355469 96.128906 142.640625 96.945312 140.871094 97.789062 C 130.398438 102.90625 130.398438 102.90625 124.65625 112.707031 C 124.148438 114.71875 123.640625 116.730469 123.121094 118.800781 C 118.84375 120.9375 118.84375 120.9375 114.480469 123.121094 C 114.480469 138.089844 114.480469 153.058594 114.480469 168.480469 C 110.914062 168.480469 107.351562 168.480469 103.679688 168.480469 C 103.679688 153.511719 103.679688 138.542969 103.679688 123.121094 C 100.828125 121.695312 97.976562 120.269531 95.039062 118.800781 C 94.246094 115.785156 94.246094 115.785156 93.4375 112.707031 C 89.449219 102.632812 82.527344 100.0625 73.171875 95.308594 C 71.542969 94.441406 69.914062 93.574219 68.234375 92.675781 C 64.230469 90.546875 60.195312 88.46875 56.160156 86.398438 C 57.585938 83.546875 59.011719 80.699219 60.480469 77.761719 Z M 60.480469 77.761719 "/>
<path style=" stroke:none;fill-rule:nonzero;fill:rgb(9.803922%,23.921569%,90.588236%);fill-opacity:1;" d="M 38.878906 88.558594 C 42.445312 88.558594 46.007812 88.558594 49.679688 88.558594 C 49.722656 89.898438 49.765625 91.242188 49.808594 92.621094 C 50.015625 98.691406 50.253906 104.765625 50.488281 110.835938 C 50.558594 112.945312 50.625 115.054688 50.691406 117.226562 C 50.777344 119.253906 50.859375 121.277344 50.945312 123.363281 C 51.011719 125.230469 51.082031 127.097656 51.152344 129.019531 C 51.5625 134.519531 51.5625 134.519531 56.160156 140.398438 C 55.460938 147.578125 54.847656 150.351562 49.679688 155.519531 C 41.851562 154.710938 41.851562 154.710938 34.558594 153.359375 C 33.074219 147.421875 33.074219 147.421875 32.398438 140.398438 C 33.441406 139.042969 34.484375 137.683594 35.558594 136.285156 C 39.5625 130.832031 39.640625 128.144531 39.511719 121.464844 C 39.492188 119.546875 39.472656 117.625 39.449219 115.644531 C 39.367188 112.664062 39.367188 112.664062 39.285156 109.621094 C 39.253906 107.597656 39.226562 105.578125 39.195312 103.496094 C 39.121094 98.515625 39.015625 93.539062 38.878906 88.558594 Z M 38.878906 88.558594 "/>
<path style=" stroke:none;fill-rule:nonzero;fill:rgb(9.411765%,23.921569%,90.588236%);fill-opacity:1;" d="M 157.679688 149.039062 C 160.53125 151.890625 163.382812 154.742188 166.320312 157.679688 C 161.152344 160.839844 155.976562 163.988281 150.796875 167.128906 C 149.339844 168.019531 147.886719 168.910156 146.386719 169.828125 C 138.808594 174.414062 131.515625 178.472656 123.121094 181.441406 C 122.40625 177.875 121.695312 174.3125 120.960938 170.640625 C 139.136719 159.949219 139.136719 159.949219 157.679688 149.039062 Z M 157.679688 149.039062 "/>
<path style=" stroke:none;fill-rule:nonzero;fill:rgb(9.803922%,23.921569%,90.588236%);fill-opacity:1;" d="M 58.320312 149.039062 C 71.792969 155.527344 84.691406 162.429688 97.199219 170.640625 C 96.488281 174.203125 95.773438 177.769531 95.039062 181.441406 C 81.140625 174.59375 67.34375 167.726562 54 159.839844 C 55.425781 156.277344 56.851562 152.710938 58.320312 149.039062 Z M 58.320312 149.039062 "/>
<path style=" stroke:none;fill-rule:nonzero;fill:rgb(9.411765%,24.313726%,90.588236%);fill-opacity:1;" d="M 90.71875 36.71875 C 92.859375 36.71875 94.996094 36.71875 97.199219 36.71875 C 97.914062 39.570312 98.625 42.421875 99.359375 45.359375 C 94.148438 48.570312 88.925781 51.761719 83.699219 54.945312 C 82.226562 55.855469 80.753906 56.761719 79.238281 57.699219 C 77.800781 58.570312 76.367188 59.441406 74.890625 60.335938 C 72.921875 61.542969 72.921875 61.542969 70.914062 62.769531 C 66.753906 64.90625 62.882812 66.003906 58.320312 66.960938 C 56.894531 64.109375 55.46875 61.257812 54 58.320312 C 57.703125 56.253906 57.703125 56.253906 61.484375 54.144531 C 64.703125 52.339844 67.925781 50.539062 71.144531 48.734375 C 72.773438 47.824219 74.40625 46.917969 76.085938 45.980469 C 77.636719 45.109375 79.191406 44.238281 80.789062 43.34375 C 82.226562 42.539062 83.664062 41.738281 85.140625 40.910156 C 88.527344 39.089844 88.527344 39.089844 90.71875 36.71875 Z M 90.71875 36.71875 "/>
<path style=" stroke:none;fill-rule:nonzero;fill:rgb(9.803922%,24.313726%,90.588236%);fill-opacity:1;" d="M 103.679688 125.28125 C 107.242188 125.28125 110.808594 125.28125 114.480469 125.28125 C 114.480469 139.535156 114.480469 153.792969 114.480469 168.480469 C 110.914062 168.480469 107.351562 168.480469 103.679688 168.480469 C 103.679688 154.222656 103.679688 139.96875 103.679688 125.28125 Z M 103.679688 125.28125 "/>
<path style=" stroke:none;fill-rule:nonzero;fill:rgb(9.803922%,23.921569%,90.588236%);fill-opacity:1;" d="M 123.121094 36.71875 C 132.609375 40.167969 141.027344 44.886719 149.714844 49.949219 C 151.109375 50.753906 152.503906 51.558594 153.9375 52.386719 C 157.347656 54.359375 160.753906 56.339844 164.160156 58.320312 C 164.160156 60.457031 164.160156 62.597656 164.160156 64.800781 C 157.679688 66.960938 157.679688 66.960938 153.804688 65.558594 C 149.230469 63.039062 144.664062 60.507812 140.128906 57.914062 C 138.527344 57.050781 136.929688 56.1875 135.277344 55.296875 C 133.753906 54.4375 132.230469 53.578125 130.664062 52.691406 C 129.269531 51.910156 127.871094 51.125 126.433594 50.320312 C 122.25 46.785156 121.574219 44.253906 120.960938 38.878906 C 121.671875 38.167969 122.386719 37.453125 123.121094 36.71875 Z M 123.121094 36.71875 "/>
<path style=" stroke:none;fill-rule:nonzero;fill:rgb(9.803922%,23.921569%,90.588236%);fill-opacity:1;" d="M 176.175781 132.164062 C 181.441406 133.921875 181.441406 133.921875 185.761719 138.238281 C 186.300781 144.71875 186.300781 144.71875 185.761719 151.199219 C 181.441406 155.519531 181.441406 155.519531 175.09375 156.328125 C 168.480469 155.519531 168.480469 155.519531 164.296875 151.738281 C 162 146.878906 162 146.878906 162.269531 142.425781 C 165.585938 135.082031 167.707031 131.546875 176.175781 132.164062 Z M 176.175781 132.164062 "/>
<path style=" stroke:none;fill-rule:nonzero;fill:rgb(22.745098%,36.470589%,100%);fill-opacity:1;" d="M 103.679688 170.640625 C 111.511719 171.449219 111.511719 171.449219 118.800781 172.800781 C 121.664062 186.597656 121.664062 186.597656 118.664062 192.238281 C 112.320312 195.515625 108.210938 194.234375 101.519531 192.238281 C 97.199219 185.761719 97.199219 185.761719 97.738281 180.226562 C 99.359375 174.960938 99.359375 174.960938 103.679688 170.640625 Z M 103.679688 170.640625 "/>
<path style=" stroke:none;fill-rule:nonzero;fill:rgb(22.745098%,36.470589%,100%);fill-opacity:1;" d="M 181.441406 64.800781 C 185.761719 69.121094 185.761719 69.121094 186.433594 74.386719 C 185.761719 79.921875 185.761719 79.921875 183.328125 83.96875 C 179.28125 86.398438 179.28125 86.398438 172.664062 85.996094 C 166.320312 84.238281 166.320312 84.238281 162 79.921875 C 161.191406 74.65625 161.191406 74.65625 162 69.121094 C 168.316406 62.101562 172.691406 61.808594 181.441406 64.800781 Z M 181.441406 64.800781 "/>
<path style=" stroke:none;fill-rule:nonzero;fill:rgb(23.137255%,36.078432%,100%);fill-opacity:1;" d="M 48.871094 62.910156 C 54 64.800781 54 64.800781 58.320312 71.28125 C 57.621094 78.457031 57.007812 81.234375 51.839844 86.398438 C 45.691406 87.1875 42.367188 87.269531 37.125 83.835938 C 33.609375 78.46875 33.457031 75.410156 34.558594 69.121094 C 39.367188 63.777344 41.652344 62.566406 48.871094 62.910156 Z M 48.871094 62.910156 "/>
<path style=" stroke:none;fill-rule:nonzero;fill:rgb(9.803922%,23.921569%,90.588236%);fill-opacity:1;" d="M 111.375 22.140625 C 116.640625 23.761719 116.640625 23.761719 120.960938 28.078125 C 121.746094 34.199219 121.730469 37.59375 118.53125 42.929688 C 114.480469 45.359375 114.480469 45.359375 107.863281 45.089844 C 101.519531 43.199219 101.519531 43.199219 97.199219 36.71875 C 97.605469 31.183594 97.605469 31.183594 99.359375 25.921875 C 105.839844 21.601562 105.839844 21.601562 111.375 22.140625 Z M 111.375 22.140625 "/>
<path style=" stroke:none;fill-rule:nonzero;fill:rgb(9.411765%,23.921569%,90.588236%);fill-opacity:1;" d="M 162 79.921875 C 162.710938 82.058594 163.425781 84.195312 164.160156 86.398438 C 152.042969 92.816406 139.925781 99.230469 127.441406 105.839844 C 125.300781 102.988281 123.164062 100.136719 120.960938 97.199219 C 126.570312 93.886719 132.195312 90.609375 137.835938 87.34375 C 139.429688 86.398438 141.023438 85.453125 142.664062 84.480469 C 144.203125 83.597656 145.742188 82.710938 147.328125 81.800781 C 148.742188 80.976562 150.15625 80.148438 151.613281 79.300781 C 155.519531 77.761719 155.519531 77.761719 162 79.921875 Z M 162 79.921875 "/>
<path style=" stroke:none;fill-rule:nonzero;fill:rgb(9.803922%,23.921569%,90.588236%);fill-opacity:1;" d="M 60.480469 77.761719 C 66.203125 80.535156 71.917969 83.328125 77.625 86.128906 C 79.253906 86.917969 80.886719 87.707031 82.566406 88.519531 C 84.894531 89.667969 84.894531 89.667969 87.269531 90.839844 C 88.707031 91.539062 90.140625 92.242188 91.621094 92.964844 C 95.039062 95.039062 95.039062 95.039062 97.199219 99.359375 C 95.0625 101.5 92.921875 103.636719 90.71875 105.839844 C 79.316406 99.425781 67.910156 93.007812 56.160156 86.398438 C 57.585938 83.546875 59.011719 80.699219 60.480469 77.761719 Z M 60.480469 77.761719 "/>
<path style=" stroke:none;fill-rule:nonzero;fill:rgb(9.803922%,23.921569%,90.588236%);fill-opacity:1;" d="M 170.640625 88.558594 C 173.492188 88.558594 176.34375 88.558594 179.28125 88.558594 C 179.28125 102.101562 179.28125 115.644531 179.28125 129.601562 C 176.429688 129.601562 173.578125 129.601562 170.640625 129.601562 C 170.640625 116.058594 170.640625 102.511719 170.640625 88.558594 Z M 170.640625 88.558594 "/>
</g>
</svg>
